<svg width="14" height="10" viewBox="0 0 14 10" fill="none" xmlns="http://www.w3.org/2000/svg">
<path d="M7.46557 0.733851V0H6.50266V0.74222C2.88001 1.06353 0 4.70223 0 9.1507C0 9.43728 0.0117737 9.72034 0.0353212 9.99987H1.30393C1.29203 9.79542 1.2842 9.58935 1.2842 9.38092C1.2842 5.34594 3.55274 2.03422 6.44716 1.67984L6.20708 8.63675H7.61107L7.48877 1.68133C10.3771 2.04387 12.6392 5.35195 12.6392 9.38106C12.6392 9.58948 12.6314 9.79555 12.6194 10H13.9648C13.9881 9.72075 13.9998 9.43769 14 9.15083C13.9999 4.6797 11.1145 1.02284 7.46557 0.733851Z" fill="#333333"/>
</svg>
