<svg width="82" height="82" viewBox="0 0 82 82" fill="none" xmlns="http://www.w3.org/2000/svg">
<path d="M10.8311 25.4199L41.0002 42.879L70.9643 25.5223" stroke="#2DD06E" stroke-width="2.05" stroke-linecap="round" stroke-linejoin="round"/>
<path d="M41.0002 73.8339V42.8447" stroke="#2DD06E" stroke-width="2.05" stroke-linecap="round" stroke-linejoin="round"/>
<path d="M8.16602 31.3308C8.16602 26.6158 11.5485 20.8759 15.6826 18.5867L33.9276 8.43908C37.8226 6.28658 44.2118 6.28658 48.1068 8.43908L66.3518 18.5867C70.486 20.8759 73.8684 26.6158 73.8684 31.3308V50.635C73.8684 55.35 70.486 61.09 66.3518 63.3791L48.1068 73.5267C44.2118 75.6792 37.8226 75.6792 33.9276 73.5267L15.6826 63.3791C11.5485 61.09 8.16602 55.35 8.16602 50.635V47.8333" stroke="#2DD06E" stroke-width="2.05" stroke-linecap="round" stroke-linejoin="round"/>
<path d="M58.0833 45.2364V32.7315L37.3441 20.739L33.7567 18.6889L25.6592 14.0081" stroke="#2DD06E" stroke-width="2.05" stroke-linecap="round" stroke-linejoin="round"/>
</svg>
