<svg width="18" height="20" viewBox="0 0 18 20" fill="none" xmlns="http://www.w3.org/2000/svg">
<path d="M0.900391 4.54541H2.70039H17.1004" stroke="#828282" stroke-width="1.5" stroke-linecap="round" stroke-linejoin="round"/>
<path d="M5.39922 4.54554V2.72736C5.39922 2.24515 5.58886 1.78269 5.92643 1.44171C6.26399 1.10074 6.72183 0.90918 7.19922 0.90918H10.7992C11.2766 0.90918 11.7344 1.10074 12.072 1.44171C12.4096 1.78269 12.5992 2.24515 12.5992 2.72736V4.54554M15.2992 4.54554V17.2728C15.2992 17.755 15.1096 18.2175 14.772 18.5585C14.4344 18.8994 13.9766 19.091 13.4992 19.091H4.49922C4.02183 19.091 3.56399 18.8994 3.22643 18.5585C2.88886 18.2175 2.69922 17.755 2.69922 17.2728V4.54554H15.2992Z" stroke="#828282" stroke-width="1.5" stroke-linecap="round" stroke-linejoin="round"/>
<path d="M7.19922 9.09082V14.5454" stroke="#828282" stroke-width="1.5" stroke-linecap="round" stroke-linejoin="round"/>
<path d="M10.8008 9.09082V14.5454" stroke="#828282" stroke-width="1.5" stroke-linecap="round" stroke-linejoin="round"/>
</svg>
