<svg width="20" height="20" viewBox="0 0 20 20" fill="none" xmlns="http://www.w3.org/2000/svg">
<path fill-rule="evenodd" clip-rule="evenodd" d="M14.5786 11.6503C14.0236 13.4353 12.6403 14.6712 10.7995 14.9437C7.99031 15.3595 5.23198 13.2295 5.01364 10.3962C4.78698 7.45616 7.10614 5.00033 10.0003 5.00033C10.6695 5.00033 11.3078 5.13199 11.8911 5.37033C12.0936 5.45283 12.3228 5.38199 12.4261 5.19033L13.622 2.98449C13.7353 2.77366 13.6536 2.50199 13.4353 2.40366C12.3878 1.93033 11.2261 1.66699 10.0028 1.66699C5.31781 1.66699 1.53531 5.53033 1.66948 10.2445C1.79198 14.5453 5.34198 18.1437 9.63948 18.3262C14.2611 18.5212 18.0945 14.9545 18.327 10.4353C18.3361 10.2703 18.3328 9.30949 18.3295 8.74616C18.3286 8.51616 18.142 8.33366 17.9128 8.33366H10.4136C10.1836 8.33366 9.99698 8.51949 9.99698 8.75033V11.2337C9.99698 11.4628 10.1836 11.6503 10.4136 11.6503H14.5786Z" fill="white"/>
</svg>
