<svg width="20" height="20" viewBox="0 0 20 20" fill="none" xmlns="http://www.w3.org/2000/svg">
<g opacity="0.8">
<path d="M14.5455 0.90918H5.45463C2.94425 0.90918 0.90918 2.94425 0.90918 5.45463V14.5455C0.90918 17.0559 2.94425 19.091 5.45463 19.091H14.5455C17.0559 19.091 19.091 17.0559 19.091 14.5455V5.45463C19.091 2.94425 17.0559 0.90918 14.5455 0.90918Z" stroke="white" stroke-width="1.5" stroke-linecap="round" stroke-linejoin="round"/>
<path d="M13.6365 9.42719C13.7487 10.1838 13.6194 10.9565 13.2672 11.6354C12.9149 12.3143 12.3575 12.8648 11.6743 13.2087C10.9911 13.5526 10.2169 13.6723 9.46173 13.5508C8.70659 13.4293 8.00898 13.0727 7.46815 12.5319C6.92731 11.991 6.57078 11.2934 6.44926 10.5383C6.32775 9.78315 6.44744 9.00891 6.79132 8.32571C7.13519 7.64251 7.68573 7.08514 8.36464 6.73287C9.04355 6.38059 9.81625 6.25136 10.5728 6.36356C11.3446 6.478 12.0591 6.83761 12.6107 7.38929C13.1624 7.94096 13.522 8.65544 13.6365 9.42719Z" stroke="white" stroke-width="1.5" stroke-linecap="round" stroke-linejoin="round"/>
<path d="M15 5H15.01" stroke="white" stroke-width="1.5" stroke-linecap="round" stroke-linejoin="round"/>
</g>
</svg>
