<svg width="82" height="83" viewBox="0 0 82 83" fill="none" xmlns="http://www.w3.org/2000/svg">
<path d="M55.521 12.6534C61.2268 17.0267 64.9168 23.8942 64.9168 31.6501C64.9168 36.6042 63.4477 41.1484 60.9193 44.9409C57.2293 50.4076 51.3868 54.2684 44.5877 55.2592C43.426 55.4642 42.2302 55.5667 41.0002 55.5667C39.7702 55.5667 38.5743 55.4642 37.4127 55.2592C30.6135 54.2684 24.771 50.4076 21.081 44.9409C18.5527 41.1484 17.0835 36.6042 17.0835 31.6501C17.0835 18.4276 27.7777 7.7334 41.0002 7.7334" stroke="#2DD06E" stroke-width="2.05" stroke-linecap="round" stroke-linejoin="round"/>
<path d="M72.6044 64.0057L66.9669 65.3382C65.7027 65.6457 64.7119 66.6024 64.4385 67.8666L63.2427 72.8891C62.5935 75.6224 59.1085 76.4424 57.2977 74.2899L41.0002 55.5665L24.7027 74.324C22.8919 76.4765 19.4069 75.6565 18.7577 72.9232L17.5619 67.9007C17.2544 66.6365 16.2635 65.6457 15.0335 65.3724L9.39602 64.0399C6.79935 63.4249 5.87685 60.179 7.75602 58.2998L21.081 44.9749C24.771 50.4415 30.6135 54.3024 37.4127 55.2933C38.5744 55.4983 39.7702 55.6007 41.0002 55.6007C42.2302 55.6007 43.426 55.4983 44.5877 55.2933C51.3869 54.3024 57.2294 50.4415 60.9194 44.9749L74.2444 58.2998C76.1235 60.1448 75.201 63.3907 72.6044 64.0057Z" stroke="#2DD06E" stroke-width="2.05" stroke-linecap="round" stroke-linejoin="round"/>
<path d="M42.9817 21.3314L44.9976 25.363C45.2709 25.9097 45.9884 26.4564 46.6376 26.5589L50.2934 27.1739C52.6167 27.5497 53.1634 29.2581 51.4892 30.9322L48.6534 33.768C48.1751 34.2464 47.9017 35.1689 48.0726 35.8522L48.8926 39.3714C49.5417 42.1389 48.0726 43.2322 45.6126 41.763L42.1959 39.7472C41.5809 39.3714 40.5559 39.3714 39.9409 39.7472L36.5242 41.763C34.0642 43.198 32.5951 42.1389 33.2442 39.3714L34.0642 35.8522C34.2009 35.2031 33.9617 34.2464 33.4834 33.768L30.6476 30.9322C28.9734 29.2581 29.5201 27.5839 31.8434 27.1739L35.4992 26.5589C36.1142 26.4564 36.8317 25.9097 37.1051 25.363L39.1209 21.3314C40.1117 19.1447 41.8884 19.1447 42.9817 21.3314Z" stroke="#2DD06E" stroke-width="2.05" stroke-linecap="round" stroke-linejoin="round"/>
</svg>
