<svg width="20" height="17" viewBox="0 0 20 17" fill="none" xmlns="http://www.w3.org/2000/svg">
<g opacity="0.8">
<path d="M19.1666 0.8501C18.3686 1.42426 17.485 1.86339 16.5499 2.1506C16.048 1.56198 15.381 1.14479 14.6391 0.955437C13.8972 0.766086 13.1162 0.813716 12.4017 1.09189C11.6871 1.37005 11.0736 1.86534 10.6441 2.51076C10.2145 3.15618 9.98967 3.92059 9.99992 4.7006V5.5506C8.53545 5.58933 7.08431 5.25804 5.77576 4.58623C4.4672 3.91442 3.34185 2.92294 2.49992 1.7001C2.49992 1.7001 -0.833415 9.3501 6.66658 12.7501C4.95036 13.9384 2.90588 14.5342 0.833252 14.4501C8.33325 18.7001 17.4999 14.4501 17.4999 4.6751C17.4991 4.43834 17.4768 4.20216 17.4333 3.9696C18.2838 3.11407 18.8839 2.03391 19.1666 0.8501V0.8501Z" stroke="white" stroke-width="1.5" stroke-linecap="round" stroke-linejoin="round"/>
</g>
</svg>
