<svg width="20" height="15" viewBox="0 0 20 15" fill="none" xmlns="http://www.w3.org/2000/svg">
<g opacity="0.8">
<path d="M18.7832 2.84992C18.6842 2.45443 18.4826 2.09206 18.1988 1.79942C17.9149 1.50679 17.5589 1.29424 17.1666 1.18325C15.7332 0.833252 9.99991 0.833252 9.99991 0.833252C9.99991 0.833252 4.26657 0.833252 2.83324 1.21659C2.44095 1.32757 2.08489 1.54012 1.80103 1.83276C1.51717 2.1254 1.31556 2.48776 1.21657 2.88325C0.954252 4.33788 0.825937 5.81351 0.83324 7.29159C0.823889 8.78079 0.952213 10.2677 1.21657 11.7333C1.32571 12.1165 1.53183 12.465 1.81503 12.7453C2.09822 13.0256 2.44892 13.2281 2.83324 13.3333C4.26657 13.7166 9.99991 13.7166 9.99991 13.7166C9.99991 13.7166 15.7332 13.7166 17.1666 13.3333C17.5589 13.2223 17.9149 13.0097 18.1988 12.7171C18.4826 12.4244 18.6842 12.0621 18.7832 11.6666C19.0435 10.2229 19.1718 8.75853 19.1666 7.29159C19.1759 5.80238 19.0476 4.3155 18.7832 2.84992V2.84992Z" stroke="white" stroke-width="1.5" stroke-linecap="round" stroke-linejoin="round"/>
<path d="M8.125 10.0167L12.9167 7.29165L8.125 4.56665V10.0167Z" stroke="white" stroke-width="1.5" stroke-linecap="round" stroke-linejoin="round"/>
</g>
</svg>
